<svg xmlns="http://www.w3.org/2000/svg" width="25" height="25" viewBox="0 0 25 25">
  <g id="Group_11913" data-name="Group 11913" transform="translate(-199.25 -619.25)">
    <path id="Vector" d="M6.686,11.047H4.36C1.547,11.047,0,9.5,0,6.686V4.36C0,1.547,1.547,0,4.36,0H6.686c2.814,0,4.36,1.547,4.36,4.36V6.686C11.047,9.5,9.5,11.047,6.686,11.047ZM4.36,1.744c-1.837,0-2.616.779-2.616,2.616V6.686c0,1.837.779,2.616,2.616,2.616H6.686C8.523,9.3,9.3,8.523,9.3,6.686V4.36c0-1.837-.779-2.616-2.616-2.616Z" transform="translate(213.203 619.25)" fill="#dcdcdc"/>
    <path id="Vector-2" data-name="Vector" d="M6.686,11.047H4.36C1.547,11.047,0,9.5,0,6.686V4.36C0,1.547,1.547,0,4.36,0H6.686c2.814,0,4.36,1.547,4.36,4.36V6.686C11.047,9.5,9.5,11.047,6.686,11.047ZM4.36,1.744c-1.837,0-2.616.779-2.616,2.616V6.686c0,1.837.779,2.616,2.616,2.616H6.686C8.523,9.3,9.3,8.523,9.3,6.686V4.36c0-1.837-.779-2.616-2.616-2.616Z" transform="translate(199.25 633.203)" fill="#dcdcdc"/>
    <path id="Vector-3" data-name="Vector" d="M5.523,11.047a5.523,5.523,0,1,1,5.523-5.523A5.528,5.528,0,0,1,5.523,11.047Zm0-9.3A3.779,3.779,0,1,0,9.3,5.523,3.786,3.786,0,0,0,5.523,1.744Z" transform="translate(199.25 619.25)" fill="#dcdcdc"/>
    <path id="Vector-4" data-name="Vector" d="M5.523,11.047a5.523,5.523,0,1,1,5.523-5.523A5.528,5.528,0,0,1,5.523,11.047Zm0-9.3A3.779,3.779,0,1,0,9.3,5.523,3.786,3.786,0,0,0,5.523,1.744Z" transform="translate(213.203 633.203)" fill="#dcdcdc"/>
  </g>
</svg>
