<svg xmlns="http://www.w3.org/2000/svg" width="25" height="25" viewBox="0 0 25 25">
  <g id="Group_11914" data-name="Group 11914" transform="translate(-3757 -805)">
    <g id="Rectangle_17676" data-name="Rectangle 17676" transform="translate(3757 805)" fill="#d2d2d2" stroke="#707070" stroke-width="1" opacity="0">
      <rect width="25" height="25" stroke="none"/>
      <rect x="0.5" y="0.5" width="24" height="24" fill="none"/>
    </g>
    <g id="Group_11914-2" data-name="Group 11914" transform="translate(21.75 -0.25)">
      <path id="Vector" d="M.846,5.233A.866.866,0,0,1,0,4.36V.872A.866.866,0,0,1,.846,0a.866.866,0,0,1,.846.872V4.36A.866.866,0,0,1,.846,5.233Z" transform="translate(3741.891 805.25)" fill="#d2d2d2"/>
      <path id="Vector-2" data-name="Vector" d="M.846,5.233A.866.866,0,0,1,0,4.36V.872A.866.866,0,0,1,.846,0a.866.866,0,0,1,.846.872V4.36A.866.866,0,0,1,.846,5.233Z" transform="translate(3750.917 805.25)" fill="#d2d2d2"/>
      <path id="Vector-3" data-name="Vector" d="M1.128,2.319A1.1,1.1,0,0,1,.7,2.226a1.161,1.161,0,0,1-.372-.244A1.22,1.22,0,0,1,0,1.156,1.188,1.188,0,0,1,.09.714,1.349,1.349,0,0,1,.327.331,1.161,1.161,0,0,1,.7.087a1.127,1.127,0,0,1,1.23.244,1.243,1.243,0,0,1,.327.826,1.8,1.8,0,0,1-.023.233.755.755,0,0,1-.068.209.891.891,0,0,1-.1.209,1.824,1.824,0,0,1-.135.174A1.168,1.168,0,0,1,1.128,2.319Z" transform="translate(3742.173 818.338)" fill="#d2d2d2"/>
      <path id="Vector-4" data-name="Vector" d="M1.128,2.324A1.1,1.1,0,0,1,.7,2.231a1.161,1.161,0,0,1-.372-.244A1.22,1.22,0,0,1,0,1.162,1.188,1.188,0,0,1,.09.72,1.349,1.349,0,0,1,.327.336,1.161,1.161,0,0,1,.7.092a1.106,1.106,0,0,1,1.23.244,1.243,1.243,0,0,1,.327.826,1.8,1.8,0,0,1-.023.233.755.755,0,0,1-.068.209.891.891,0,0,1-.1.209,1.824,1.824,0,0,1-.135.174A1.168,1.168,0,0,1,1.128,2.324Z" transform="translate(3746.122 818.333)" fill="#d2d2d2"/>
      <path id="Vector-5" data-name="Vector" d="M1.128,2.324A1.1,1.1,0,0,1,.7,2.231a1.161,1.161,0,0,1-.372-.244L.192,1.813A.891.891,0,0,1,.09,1.6a.755.755,0,0,1-.068-.209A1.8,1.8,0,0,1,0,1.162,1.243,1.243,0,0,1,.327.336,1.161,1.161,0,0,1,.7.092a1.1,1.1,0,0,1,1.23.244,1.243,1.243,0,0,1,.327.826,1.8,1.8,0,0,1-.023.233.755.755,0,0,1-.068.209.891.891,0,0,1-.1.209,1.824,1.824,0,0,1-.135.174A1.168,1.168,0,0,1,1.128,2.324Z" transform="translate(3750.071 818.333)" fill="#d2d2d2"/>
      <path id="Vector-6" data-name="Vector" d="M1.128,2.311A1.1,1.1,0,0,1,.7,2.218a1.3,1.3,0,0,1-.372-.244A1.243,1.243,0,0,1,0,1.148,1.188,1.188,0,0,1,.09.706,1.09,1.09,0,0,1,.327.323a1.156,1.156,0,0,1,1.6,0,1.243,1.243,0,0,1,.327.826,1.243,1.243,0,0,1-.327.826A1.168,1.168,0,0,1,1.128,2.311Z" transform="translate(3742.173 822.416)" fill="#d2d2d2"/>
      <path id="Vector-7" data-name="Vector" d="M1.128,2.311a1.168,1.168,0,0,1-.8-.337A1.243,1.243,0,0,1,0,1.148,1.188,1.188,0,0,1,.09.706,1.09,1.09,0,0,1,.327.323a1.156,1.156,0,0,1,1.6,0,1.09,1.09,0,0,1,.237.384,1.188,1.188,0,0,1,.09.442,1.243,1.243,0,0,1-.327.826A1.168,1.168,0,0,1,1.128,2.311Z" transform="translate(3746.122 822.416)" fill="#d2d2d2"/>
      <path id="Vector-8" data-name="Vector" d="M1.128,2.327a1.168,1.168,0,0,1-.8-.337A1.09,1.09,0,0,1,.09,1.606,1.188,1.188,0,0,1,0,1.164,1.188,1.188,0,0,1,.09.722,1.09,1.09,0,0,1,.327.338,1.1,1.1,0,0,1,1.343.024a.666.666,0,0,1,.214.07.845.845,0,0,1,.2.1,1.788,1.788,0,0,1,.169.14,1.243,1.243,0,0,1,.327.826,1.243,1.243,0,0,1-.327.826A1.168,1.168,0,0,1,1.128,2.327Z" transform="translate(3750.071 822.4)" fill="#d2d2d2"/>
      <path id="Vector-9" data-name="Vector" d="M20.026,1.744H.846A.866.866,0,0,1,0,.872.866.866,0,0,1,.846,0h19.18a.866.866,0,0,1,.846.872A.866.866,0,0,1,20.026,1.744Z" transform="translate(3736.814 813.494)" fill="#d2d2d2"/>
      <path id="Vector-10" data-name="Vector" d="M15.513,23.256H6.487C2.369,23.256,0,20.814,0,16.57V6.686C0,2.442,2.369,0,6.487,0h9.026C19.631,0,22,2.442,22,6.686V16.57C22,20.814,19.631,23.256,15.513,23.256ZM6.487,1.744c-3.227,0-4.795,1.616-4.795,4.942V16.57c0,3.326,1.568,4.942,4.795,4.942h9.026c3.227,0,4.795-1.616,4.795-4.942V6.686c0-3.326-1.568-4.942-4.795-4.942Z" transform="translate(3736.25 806.994)" fill="#d2d2d2"/>
    </g>
  </g>
</svg>
