<svg xmlns="http://www.w3.org/2000/svg" width="25" height="25" viewBox="0 0 25 25">
  <path id="Union_14" data-name="Union 14" d="M16.084,20.541A4.458,4.458,0,1,1,20.541,25,4.463,4.463,0,0,1,16.084,20.541Zm2.083-.014a2.375,2.375,0,1,0,2.375-2.375A2.383,2.383,0,0,0,18.166,20.527ZM0,20.541A4.458,4.458,0,1,1,4.459,25,4.463,4.463,0,0,1,0,20.541Zm2.084-.014a2.375,2.375,0,1,0,2.375-2.375A2.382,2.382,0,0,0,2.084,20.527Zm14-16.069a4.458,4.458,0,1,1,4.458,4.458A4.463,4.463,0,0,1,16.084,4.459Zm2.083-.014A2.375,2.375,0,1,0,20.541,2.07,2.384,2.384,0,0,0,18.166,4.445ZM0,4.459A4.458,4.458,0,1,1,4.459,8.916,4.464,4.464,0,0,1,0,4.459Zm2.084-.014A2.375,2.375,0,1,0,4.459,2.07,2.383,2.383,0,0,0,2.084,4.445Z" fill="#d2d2d2"/>
</svg>
