<svg xmlns="http://www.w3.org/2000/svg" width="200" height="45.161" viewBox="0 0 200 45.161">
  <g id="Group_11849" data-name="Group 11849" transform="translate(-561.937 170.7)">
    <path id="path22" d="M3.089,7.925A11.419,11.419,0,0,1-1.348,2.451l-.579.182A25.816,25.816,0,0,1-.468,9.3h-8.1V-27.3H-.546v7.448A23.969,23.969,0,0,1-.875-15.8a35.628,35.628,0,0,1-1.074,4.313l.551.212a11.546,11.546,0,0,1,4.466-5.514A13.42,13.42,0,0,1,10.452-18.7q6.2,0,9.411,3.541T23.076-4.763v.654q0,6.852-3.213,10.378T10.452,9.8A13.492,13.492,0,0,1,3.089,7.925M13.068,2.84Q15,.595,15-3.851v-1.2Q15-9.5,13.068-11.77a7,7,0,0,0-5.649-2.274A7.452,7.452,0,0,0,1.505-11.7Q-.546-9.364-.546-4.919v.939q0,4.418,2.052,6.742A7.468,7.468,0,0,0,7.419,5.09a7.03,7.03,0,0,0,5.649-2.25" transform="translate(570.505 -143.401)" fill="#fff"/>
    <path id="path26" d="M8.384,3.545a9.69,9.69,0,0,1-4.893,6.686Q-.462,12.483-7.244,12.484q-7.747,0-11.878-3.332T-23.255-.537V-1.991a12.817,12.817,0,0,1,1.876-7.075A11.65,11.65,0,0,1-15.895-13.5a22.662,22.662,0,0,1,8.766-1.516,21.577,21.577,0,0,1,8.363,1.452A11.191,11.191,0,0,1,6.485-9.332,12.147,12.147,0,0,1,8.277-2.619,30.1,30.1,0,0,1,8.056.661H-15.126a7.3,7.3,0,0,0,2.233,5.495A8.517,8.517,0,0,0-7.079,8,8.923,8.923,0,0,0-2.01,6.731,5.968,5.968,0,0,0,.415,2.787ZM-12.7-8.813A7.076,7.076,0,0,0-15.073-3.84H.168v-.4A5.79,5.79,0,0,0-1.705-8.883a8.05,8.05,0,0,0-5.4-1.613A8.46,8.46,0,0,0-12.7-8.813" transform="translate(620.398 -147.166)" fill="#fff"/>
    <path id="path30" d="M0,0H8.022V8.47a22.444,22.444,0,0,1-.357,3.751,24.876,24.876,0,0,1-1.13,3.935l.579.212a12.856,12.856,0,0,1,4.893-5.8,14.351,14.351,0,0,1,7.648-1.906q4.958,0,7.565,2.233t2.6,6.548V36.6H21.8V19.271q0-5.386-5.649-5.385a7.8,7.8,0,0,0-4.366,1.2,7.569,7.569,0,0,0-2.8,3.451,13.4,13.4,0,0,0-.967,5.308V36.6H0Z" transform="translate(633.226 -170.699)" fill="#fff"/>
    <path id="path34" d="M.314,7.011l5.07-.366a21.386,21.386,0,0,0,3.088-.378A4.526,4.526,0,0,0,10.1,5.638a2.27,2.27,0,0,0,.773-.955L11.26,3.56-.871-24.149H7.4L13.27-9.066a42.718,42.718,0,0,1,1.957,6.613h.55a57.791,57.791,0,0,1,1.9-6.613l5.373-15.083h7.993L21.373.16a27.765,27.765,0,0,1-4.435,7.67,13.032,13.032,0,0,1-5.885,3.751A40.453,40.453,0,0,1,1.2,13.07Z" transform="translate(665.711 -138.609)" fill="#fff"/>
    <path id="path38" d="M0,0H8.3l4.934,12.094A79.863,79.863,0,0,1,15.9,20.063h.551q1.184-4.17,2.618-7.969L23.955,0h8.022L20.813,26.241H11.22Z" transform="translate(697.278 -161.547)" fill="#fff"/>
    <path id="path42" d="M8.385,3.545a9.69,9.69,0,0,1-4.893,6.686Q-.461,12.483-7.243,12.484q-7.747,0-11.878-3.332T-23.257-.537V-1.991a12.816,12.816,0,0,1,1.874-7.075A11.655,11.655,0,0,1-15.9-13.5a22.656,22.656,0,0,1,8.766-1.516,21.577,21.577,0,0,1,8.363,1.452A11.173,11.173,0,0,1,6.482-9.332,12.147,12.147,0,0,1,8.275-2.619,29.7,29.7,0,0,1,8.051.661h-23.18A7.3,7.3,0,0,0-12.9,6.155,8.524,8.524,0,0,0-7.083,8a8.93,8.93,0,0,0,5.07-1.267A5.968,5.968,0,0,0,.412,2.787ZM-12.7-8.813A7.05,7.05,0,0,0-15.067-3.84H.175v-.4A5.792,5.792,0,0,0-1.7-8.883,8.05,8.05,0,0,0-7.1-10.5a8.471,8.471,0,0,0-5.6,1.684" transform="translate(753.551 -147.166)" fill="#fff"/>
  </g>
</svg>
