<svg id="svgexport-6_11_" data-name="svgexport-6 (11)" xmlns="http://www.w3.org/2000/svg" width="16" height="16" viewBox="0 0 16 16">
  <path id="Path_1791" data-name="Path 1791" d="M3.546,143.616,2.989,145.7l-2.036.043a8.014,8.014,0,0,1-.059-7.47h0l1.812.332.794,1.8a4.774,4.774,0,0,0,.045,3.215Z" transform="translate(0 -133.947)" fill="#fff"/>
  <path id="Path_1792" data-name="Path 1792" d="M269.312,208.176a8,8,0,0,1-2.852,7.733h0l-2.283-.116-.323-2.017a4.768,4.768,0,0,0,2.051-2.435h-4.278v-3.165h7.684Z" transform="translate(-253.452 -201.671)" fill="#fff"/>
  <path id="Path_1793" data-name="Path 1793" d="M42.564,313.978h0a8,8,0,0,1-12.055-2.447l2.593-2.122a4.758,4.758,0,0,0,6.856,2.436Z" transform="translate(-29.556 -299.74)" fill="#fff"/>
  <path id="Path_1794" data-name="Path 1794" d="M40.836,1.842,38.244,3.964a4.757,4.757,0,0,0-7.014,2.491L28.624,4.321h0A8,8,0,0,1,40.836,1.842Z" transform="translate(-27.729)" fill="#fff"/>
</svg>
