<svg xmlns="http://www.w3.org/2000/svg" width="18" height="18" viewBox="0 0 18 18">
  <g id="Group_11089" data-name="Group 11089" transform="translate(-2600 19343)">
    <path id="Vector" d="M0,0H18V18H0Z" transform="translate(2600 -19343)" fill="none" opacity="0"/>
    <g id="Group_11088" data-name="Group 11088" transform="translate(2600.899 -19343)">
      <path id="Union_9" data-name="Union 9" d="M10.146,17.2h-5.6C1.659,17.2,0,15.52,0,12.6V5.8C0,3.087,1.433,1.444,3.951,1.225V.6A.593.593,0,1,1,5.136.6v.6h5.137V.6a.593.593,0,1,1,1.185,0v.625c2.518.219,3.951,1.862,3.951,4.575v6.069A3.809,3.809,0,0,1,12.448,18,3.708,3.708,0,0,1,10.146,17.2Zm-.267-3A2.568,2.568,0,1,0,14.4,12.517c-.012-.012-.023-.024-.034-.037A2.558,2.558,0,0,0,9.879,14.2ZM1.185,12.6c0,2.287,1.1,3.4,3.359,3.4h4.6a3.805,3.805,0,0,1-.213-.474v0L8.919,15.5l-.013-.037h0A3.806,3.806,0,0,1,12.447,10.4h.083a3.7,3.7,0,0,1,1.7.452V6.874H1.185Zm0-6.927H14.224c-.036-2-.943-3.063-2.765-3.245V3a.593.593,0,1,1-1.185,0V2.4H5.136V3A.593.593,0,1,1,3.951,3V2.428C2.13,2.611,1.223,3.678,1.187,5.674Zm10.667,9.79v-.622h-.592a.6.6,0,0,1,0-1.2h.592v-.57a.593.593,0,1,1,1.185,0v.57h.585a.6.6,0,0,1,0,1.2h-.585v.622a.593.593,0,1,1-1.185,0ZM4.639,13.336a.914.914,0,0,1-.261-.168.834.834,0,0,1-.229-.568.877.877,0,0,1,.229-.568.907.907,0,0,1,.261-.168.786.786,0,0,1,.861.168.828.828,0,0,1,.166.264.8.8,0,0,1,.063.3.787.787,0,0,1-.79.8A.769.769,0,0,1,4.639,13.336Zm2.505-2.967a.936.936,0,0,1-.166-.264.8.8,0,0,1-.063-.3.844.844,0,0,1,.229-.568.782.782,0,0,1,.861-.168.926.926,0,0,1,.261.168A.848.848,0,0,1,8.5,9.8a.682.682,0,0,1-.063.3.931.931,0,0,1-.166.264.914.914,0,0,1-.261.168.66.66,0,0,1-.3.064A.828.828,0,0,1,7.144,10.369Zm-2.505.167a.914.914,0,0,1-.261-.168A.848.848,0,0,1,4.149,9.8a.819.819,0,0,1,.063-.3.938.938,0,0,1,.166-.264.907.907,0,0,1,.261-.168.8.8,0,0,1,.861.168.938.938,0,0,1,.166.264.8.8,0,0,1,.063.3.844.844,0,0,1-.229.568.826.826,0,0,1-.561.233A.65.65,0,0,1,4.639,10.536Z" transform="translate(0 0)" fill="#fff"/>
    </g>
  </g>
</svg>
