<svg xmlns="http://www.w3.org/2000/svg" xmlns:xlink="http://www.w3.org/1999/xlink" width="161" height="161" viewBox="0 0 161 161">
  <defs>
    <filter id="Background" x="0" y="0" width="161" height="161" filterUnits="userSpaceOnUse">
      <feOffset dx="-2" dy="-4" input="SourceAlpha"/>
      <feGaussianBlur stdDeviation="20" result="blur"/>
      <feFlood flood-opacity="0.051"/>
      <feComposite operator="in" in2="blur"/>
      <feComposite in="SourceGraphic"/>
    </filter>
  </defs>
  <g id="Group_12791" data-name="Group 12791" transform="translate(-291.5 -1.5)">
    <g transform="matrix(1, 0, 0, 1, 291.5, 1.5)" filter="url(#Background)">
      <rect id="Background-2" data-name="Background" width="40" height="40" rx="10" transform="translate(102.5 104.5) rotate(180)" fill="#fff" stroke="rgba(0,0,0,0)" stroke-width="1"/>
    </g>
    <g id="Group_11869" data-name="Group 11869" transform="translate(-3024 309)" opacity="0.8">
      <g id="Rectangle_17662" data-name="Rectangle 17662" transform="translate(3387 -234)" fill="#242424" stroke="#707070" stroke-width="1" opacity="0">
        <rect width="22" height="22" stroke="none"/>
        <rect x="0.5" y="0.5" width="21" height="21" fill="none"/>
      </g>
      <g id="Group_11868" data-name="Group 11868" transform="translate(16.75 0.75)">
        <rect id="Rectangle_17663" data-name="Rectangle 17663" width="7.5" height="7.5" rx="3.75" transform="translate(3384.75 -234.75)" fill="#f15a03"/>
        <path id="Vector" d="M3.75,7.5A3.75,3.75,0,1,1,7.5,3.75,3.751,3.751,0,0,1,3.75,7.5Zm0-6A2.25,2.25,0,1,0,6,3.75,2.253,2.253,0,0,0,3.75,1.5Z" transform="translate(3384.75 -234.75)" fill="#f15a03"/>
        <path id="Vector-2" data-name="Vector" d="M5.75,1.5h-5A.755.755,0,0,1,0,.75.755.755,0,0,1,.75,0h5A.755.755,0,0,1,6.5.75.755.755,0,0,1,5.75,1.5Z" transform="translate(3375.417 -223.475)" fill="#242424"/>
        <path id="Vector-3" data-name="Vector" d="M10.214,1.5H.786A.774.774,0,0,1,0,.75.774.774,0,0,1,.786,0h9.429A.774.774,0,0,1,11,.75.774.774,0,0,1,10.214,1.5Z" transform="translate(3375.25 -219.375)" fill="#242424"/>
        <path id="Vector-4" data-name="Vector" d="M14.07,22H7.93C2.374,22,0,19.626,0,14.07V7.93C0,2.374,2.374,0,7.93,0h5.116a.773.773,0,0,1,.767.767.773.773,0,0,1-.767.767H7.93c-4.717,0-6.4,1.678-6.4,6.4v6.14c0,4.717,1.678,6.4,6.4,6.4h6.14c4.717,0,6.4-1.678,6.4-6.4V8.953a.767.767,0,1,1,1.535,0V14.07C22,19.626,19.626,22,14.07,22Z" transform="translate(3370.25 -234.75)" fill="#242424"/>
      </g>
    </g>
  </g>
</svg>
