<svg xmlns="http://www.w3.org/2000/svg" width="16" height="16" viewBox="0 0 16 16">
  <g id="Group_11349" data-name="Group 11349" transform="translate(1080 -765)">
    <g id="Rectangle_17529" data-name="Rectangle 17529" transform="translate(-1080 765)" fill="#fff" stroke="#707070" stroke-width="1" opacity="0">
      <rect width="16" height="16" stroke="none"/>
      <rect x="0.5" y="0.5" width="15" height="15" fill="none"/>
    </g>
    <g id="Group_11348" data-name="Group 11348" transform="translate(-1078.667 765)">
      <g id="Group" transform="translate(0 4)">
        <path id="Vector" d="M12.383,9.728a10.988,10.988,0,0,0,1.008-1.9,3.456,3.456,0,0,1-.456-6.24A3.957,3.957,0,0,0,9.943,0,4.5,4.5,0,0,0,8.175.384,3.263,3.263,0,0,1,6.967.672,3.965,3.965,0,0,1,5.615.36,4.623,4.623,0,0,0,3.975,0,4.069,4.069,0,0,0,.7,1.976c-1.136,1.76-.936,5.056.9,7.872.656,1.008,1.536,2.136,2.68,2.152a2.456,2.456,0,0,0,1.136-.288,3.378,3.378,0,0,1,1.56-.368,3.244,3.244,0,0,1,1.552.368A2.355,2.355,0,0,0,9.639,12C10.8,11.984,11.727,10.736,12.383,9.728Z" transform="translate(0 0)" fill="#fff"/>
      </g>
      <path id="Vector-2" data-name="Vector" d="M2.969,0a3.218,3.218,0,0,1-.7,2.36A2.862,2.862,0,0,1,.033,3.5a2.975,2.975,0,0,1,.72-2.3A3.477,3.477,0,0,1,2.969,0Z" transform="translate(6.806)" fill="#fff"/>
    </g>
  </g>
</svg>
