<svg xmlns="http://www.w3.org/2000/svg" width="16" height="16" viewBox="0 0 16 16">
  <g id="Group_11356" data-name="Group 11356" transform="translate(1575 -347)">
    <g id="Rectangle_17530" data-name="Rectangle 17530" transform="translate(-1575 348)" fill="#1e3340" stroke="#707070" stroke-width="1" opacity="0">
      <rect width="16" height="15" stroke="none"/>
      <rect x="0.5" y="0.5" width="15" height="14" fill="none"/>
    </g>
    <g id="Group_11355" data-name="Group 11355" transform="translate(-1575 347)">
      <path id="Vector" d="M1.261,5.331A.52.52,0,0,1,.89,5.177,3.032,3.032,0,1,1,5.177.89a.524.524,0,0,1,0,.743L1.632,5.177A.52.52,0,0,1,1.261,5.331ZM3.033,1.051A1.983,1.983,0,0,0,1.31,4.014l2.7-2.7A1.973,1.973,0,0,0,3.033,1.051Z" transform="translate(4.496 4.496)" fill="#1e3340"/>
      <path id="Vector-2" data-name="Vector" d="M2.9,10.88a.533.533,0,0,1-.343-.126,10.168,10.168,0,0,1-2-2.333,4.244,4.244,0,0,1,0-4.2C2.266,1.541,4.753,0,7.381,0a7.3,7.3,0,0,1,4.393,1.534.525.525,0,0,1-.631.841A6.234,6.234,0,0,0,7.381,1.051,7.236,7.236,0,0,0,1.44,4.785a3.184,3.184,0,0,0,0,3.069,9.619,9.619,0,0,0,1.793,2.1.53.53,0,0,1,.056.743A.509.509,0,0,1,2.9,10.88Z" transform="translate(0.149 1.21)" fill="#1e3340"/>
      <path id="Vector-3" data-name="Vector" d="M3.039,9.7a6.918,6.918,0,0,1-2.718-.56.524.524,0,0,1,.406-.967,5.88,5.88,0,0,0,2.3.476A7.236,7.236,0,0,0,8.973,4.911a3.184,3.184,0,0,0,0-3.069A9.979,9.979,0,0,0,8.266.862.532.532,0,0,1,8.343.119.526.526,0,0,1,9.085.2a11.134,11.134,0,0,1,.778,1.079,4.244,4.244,0,0,1,0,4.2C8.154,8.155,5.667,9.7,3.039,9.7Z" transform="translate(4.49 4.153)" fill="#1e3340"/>
      <path id="Vector-4" data-name="Vector" d="M.528,3.02A.531.531,0,0,1,.01,2.593a.516.516,0,0,1,.42-.609A1.976,1.976,0,0,0,1.985.428.531.531,0,0,1,2.6.008a.526.526,0,0,1,.42.617,3.01,3.01,0,0,1-2.4,2.4A.459.459,0,0,0,.528,3.02Z" transform="translate(7.485 7.5)" fill="#1e3340"/>
      <path id="Vector-5" data-name="Vector" d="M.524,6.282a.52.52,0,0,1-.371-.154.529.529,0,0,1,0-.743L5.386.152a.525.525,0,0,1,.743.743L.895,6.128A.52.52,0,0,1,.524,6.282Z" transform="translate(0 8.778)" fill="#1e3340"/>
      <path id="Vector-6" data-name="Vector" d="M.524,6.282a.52.52,0,0,1-.371-.154.529.529,0,0,1,0-.743L5.386.152a.525.525,0,0,1,.743.743L.895,6.128A.52.52,0,0,1,.524,6.282Z" transform="translate(8.778)" fill="#1e3340"/>
    </g>
  </g>
</svg>
