<svg xmlns="http://www.w3.org/2000/svg" width="12" height="12" viewBox="0 0 12 12">
  <g id="Group_10683" data-name="Group 10683" transform="translate(2114 -2780)">
    <g id="Rectangle_55" data-name="Rectangle 55" transform="translate(-2114 2780)" fill="#ffe83b" stroke="#707070" stroke-width="1" opacity="0">
      <rect width="12" height="12" stroke="none"/>
      <rect x="0.5" y="0.5" width="11" height="11" fill="none"/>
    </g>
    <path id="Vector" d="M7.038.857,8.094,2.969a1.3,1.3,0,0,0,.848.624l1.912.32c1.224.208,1.512,1.088.632,1.968L10,7.377a1.306,1.306,0,0,0-.312,1.088l.424,1.848c.336,1.456-.44,2.024-1.728,1.264L6.59,10.513a1.289,1.289,0,0,0-1.184,0l-1.8,1.056c-1.288.76-2.064.192-1.728-1.264L2.3,8.457A1.321,1.321,0,0,0,1.99,7.369L.51,5.889c-.88-.88-.592-1.768.632-1.968L3.054,3.6A1.324,1.324,0,0,0,3.9,2.977L4.958.865C5.526-.287,6.47-.287,7.038.857Z" transform="translate(-2114 2780)" fill="#ffe83b"/>
  </g>
</svg>
