<svg xmlns="http://www.w3.org/2000/svg" xmlns:xlink="http://www.w3.org/1999/xlink" width="25" height="25" viewBox="0 0 25 25">
  <defs>
    <linearGradient id="linear-gradient" x1="0.5" x2="0.5" y2="1" gradientUnits="objectBoundingBox">
      <stop offset="0" stop-color="#f15a03"/>
      <stop offset="1" stop-color="#f48211"/>
    </linearGradient>
  </defs>
  <path id="Union_17" data-name="Union 17" d="M16.294,20.94a4.215,4.215,0,0,1,4.353-4.062A4.215,4.215,0,0,1,25,20.94,4.215,4.215,0,0,1,20.647,25,4.215,4.215,0,0,1,16.294,20.94ZM0,20.94a4.214,4.214,0,0,1,4.353-4.062A4.215,4.215,0,0,1,8.706,20.94,4.215,4.215,0,0,1,4.353,25,4.214,4.214,0,0,1,0,20.94ZM16.294,4.062A4.215,4.215,0,0,1,20.647,0,4.215,4.215,0,0,1,25,4.062a4.216,4.216,0,0,1-4.353,4.062A4.216,4.216,0,0,1,16.294,4.062ZM0,4.062A4.214,4.214,0,0,1,4.353,0,4.215,4.215,0,0,1,8.706,4.062,4.216,4.216,0,0,1,4.353,8.123,4.215,4.215,0,0,1,0,4.062Z" fill="url(#linear-gradient)"/>
</svg>
