<svg xmlns="http://www.w3.org/2000/svg" xmlns:xlink="http://www.w3.org/1999/xlink" width="25" height="25" viewBox="0 0 25 25">
  <defs>
    <linearGradient id="linear-gradient" x1="0.5" x2="0.5" y2="1" gradientUnits="objectBoundingBox">
      <stop offset="0" stop-color="#f15a03"/>
      <stop offset="1" stop-color="#f48211"/>
    </linearGradient>
  </defs>
  <g id="Group_11916" data-name="Group 11916" transform="translate(-3752 -986)">
    <g id="Rectangle_17677" data-name="Rectangle 17677" transform="translate(3752 986)" fill="#fff" stroke="#707070" stroke-width="1" opacity="0">
      <rect width="25" height="25" stroke="none"/>
      <rect x="0.5" y="0.5" width="24" height="24" fill="none"/>
    </g>
    <path id="Union_6" data-name="Union 6" d="M6.112,25C1.834,25,0,22.59,0,18.976V11.554a1.217,1.217,0,0,1,1.222-1.206H20.778A1.217,1.217,0,0,1,22,11.554v7.421C22,22.59,20.166,25,15.888,25Zm8.3-6.277a1.209,1.209,0,0,0,0,1.71,1.25,1.25,0,0,0,1.736,0,1.209,1.209,0,0,0,0-1.71,1.294,1.294,0,0,0-1.736,0Zm-4.278,0a1.209,1.209,0,0,0,0,1.71,1.25,1.25,0,0,0,1.736,0,1.209,1.209,0,0,0,0-1.71,1.294,1.294,0,0,0-1.736,0Zm-3.874-.254a1.184,1.184,0,0,0,0,2.217,1.243,1.243,0,0,0,.464.1,1.541,1.541,0,0,0,.244-.025.779.779,0,0,0,.22-.072.92.92,0,0,0,.22-.108,1.955,1.955,0,0,0,.184-.145,1.209,1.209,0,0,0,0-1.71l-.184-.145a.962.962,0,0,0-.22-.108.779.779,0,0,0-.22-.072,1.25,1.25,0,0,0-.245-.025A1.149,1.149,0,0,0,6.258,18.469Zm8.556-4.217a1.2,1.2,0,0,0-.4,1.965,1.3,1.3,0,0,0,.868.349,1.875,1.875,0,0,0,.244-.024.831.831,0,0,0,.22-.073.94.94,0,0,0,.22-.108l.184-.144a1.21,1.21,0,0,0,0-1.711l-.184-.145a.985.985,0,0,0-.22-.108.79.79,0,0,0-.22-.072,1.241,1.241,0,0,0-.243-.024A1.165,1.165,0,0,0,14.814,14.252Zm-4.278,0a1.147,1.147,0,0,0-.4.254,1.21,1.21,0,0,0,0,1.711,1.3,1.3,0,0,0,.868.349,1.693,1.693,0,0,0,.244-.024.818.818,0,0,0,.22-.073.92.92,0,0,0,.22-.108l.184-.144a1.21,1.21,0,0,0,0-1.711,1.235,1.235,0,0,0-.863-.348A1.2,1.2,0,0,0,10.536,14.252Zm-4.682.254a1.21,1.21,0,0,0,0,1.711,1.253,1.253,0,0,0,1.736,0,1.21,1.21,0,0,0,0-1.711,1.147,1.147,0,0,0-.4-.254,1.2,1.2,0,0,0-.469-.094A1.235,1.235,0,0,0,5.854,14.506ZM.66,8.542A.61.61,0,0,1,.048,7.9c.245-2.88,1.846-4.82,5.146-5.12V.9A.917.917,0,0,1,7.028.9V2.711h7.944V.9a.917.917,0,0,1,1.834,0v1.88c3.3.3,4.9,2.24,5.146,5.12a.6.6,0,0,1-.612.639Z" transform="translate(3753 986)" fill="url(#linear-gradient)"/>
  </g>
</svg>
