<svg id="Group_10701" data-name="Group 10701" xmlns="http://www.w3.org/2000/svg" width="14" height="14" viewBox="0 0 14 14">
  <path id="Vector" d="M0,0H14V14H0Z" fill="none" opacity="0"/>
  <g id="Group_10700" data-name="Group 10700" transform="translate(0.875)">
    <path id="Vector-2" data-name="Vector" d="M3.757,7.488A3.744,3.744,0,1,1,7.513,3.744,3.755,3.755,0,0,1,3.757,7.488Zm0-6.512A2.767,2.767,0,1,0,6.533,3.744,2.778,2.778,0,0,0,3.757.977Z" transform="translate(2.345)" fill="#f48211"/>
    <path id="Vector-3" data-name="Vector" d="M.49,5.535A.493.493,0,0,1,0,5.047C0,2.266,2.737,0,6.1,0A7.14,7.14,0,0,1,8.036.26a.487.487,0,1,1-.261.938A6.2,6.2,0,0,0,6.1.977C3.28.977.98,2.8.98,5.047A.493.493,0,0,1,.49,5.535Z" transform="translate(0 8.465)" fill="#f48211"/>
    <path id="Vector-4" data-name="Vector" d="M3.1,6.186a3.077,3.077,0,0,1-2.071-.8,2.79,2.79,0,0,1-.588-.7A3.08,3.08,0,0,1,.875.938a3.107,3.107,0,0,1,4.534.091,3.08,3.08,0,0,1,.8,2.064,2.727,2.727,0,0,1-.1.729,2.77,2.77,0,0,1-.359.866A3.076,3.076,0,0,1,3.1,6.186ZM3.1.977A2.115,2.115,0,0,0,.98,3.093,2.058,2.058,0,0,0,1.287,4.18a1.893,1.893,0,0,0,.4.482A2.1,2.1,0,0,0,3.1,5.216,2.129,2.129,0,0,0,4.92,4.193,2.024,2.024,0,0,0,5.161,3.6a1.888,1.888,0,0,0,.065-.5,2.107,2.107,0,0,0-.549-1.413A2.067,2.067,0,0,0,3.1.977Z" transform="translate(6.919 7.814)" fill="#f48211"/>
    <path id="Vector-5" data-name="Vector" d="M2.443.977H.49A.493.493,0,0,1,0,.488.493.493,0,0,1,.49,0H2.443a.493.493,0,0,1,.49.488A.493.493,0,0,1,2.443.977Z" transform="translate(8.558 10.406)" fill="#f48211"/>
    <path id="Vector-6" data-name="Vector" d="M.49,2.924A.493.493,0,0,1,0,2.435V.488A.493.493,0,0,1,.49,0,.493.493,0,0,1,.98.488V2.435A.489.489,0,0,1,.49,2.924Z" transform="translate(9.532 9.455)" fill="#f48211"/>
  </g>
</svg>
